<svg width="41" height="40" viewBox="0 0 41 40" fill="none" xmlns="http://www.w3.org/2000/svg">
<rect x="40.5" y="0.00012207" width="40" height="40" rx="20" transform="rotate(90 40.5 0.00012207)" fill="#E0EFF6"/>
<path fill-rule="evenodd" clip-rule="evenodd" d="M16.479 20.0002C16.479 19.8817 16.5261 19.7681 16.6099 19.6843C16.6937 19.6005 16.8073 19.5534 16.9258 19.5534L24.9684 19.5534C25.0869 19.5534 25.2006 19.6005 25.2843 19.6843C25.3681 19.7681 25.4152 19.8817 25.4152 20.0002C25.4152 20.1187 25.3681 20.2324 25.2843 20.3162C25.2006 20.3999 25.0869 20.447 24.9684 20.447L16.9258 20.447C16.8073 20.447 16.6937 20.3999 16.6099 20.3162C16.5261 20.2324 16.479 20.1187 16.479 20.0002Z" fill="#07484A"/>
<path fill-rule="evenodd" clip-rule="evenodd" d="M15.716 20.3165C15.6744 20.275 15.6414 20.2256 15.6188 20.1714C15.5963 20.1171 15.5847 20.0589 15.5847 20.0001C15.5847 19.9413 15.5963 19.8832 15.6188 19.8289C15.6414 19.7746 15.6744 19.7253 15.716 19.6838L18.3968 17.0029C18.4807 16.919 18.5945 16.8719 18.7132 16.8719C18.8318 16.8719 18.9456 16.919 19.0295 17.0029C19.1134 17.0868 19.1606 17.2006 19.1606 17.3193C19.1606 17.4379 19.1134 17.5517 19.0295 17.6356L16.6641 20.0001L19.0295 22.3646C19.1134 22.4485 19.1606 22.5623 19.1606 22.681C19.1606 22.7996 19.1134 22.9134 19.0295 22.9973C18.9456 23.0812 18.8318 23.1284 18.7132 23.1284C18.5945 23.1284 18.4807 23.0812 18.3968 22.9973L15.716 20.3165Z" fill="#07484A"/>
</svg>
