<svg width="25" height="31" viewBox="0 0 25 31" fill="none" xmlns="http://www.w3.org/2000/svg">
<path d="M19.7917 9.6665V8.20817C19.7917 4.18755 16.5207 0.916504 12.5 0.916504C8.47942 0.916504 5.20837 4.18755 5.20837 8.20817V12.5832H3.75004C2.1415 12.5832 0.833374 13.8913 0.833374 15.4998V27.1665C0.833374 28.775 2.1415 30.0832 3.75004 30.0832H21.25C22.8586 30.0832 24.1667 28.775 24.1667 27.1665V15.4998C24.1667 13.8913 22.8586 12.5832 21.25 12.5832H8.12504V8.20817C8.12504 5.79609 10.088 3.83317 12.5 3.83317C14.9121 3.83317 16.875 5.79609 16.875 8.20817V9.6665H19.7917Z" fill="black"/>
</svg>
