<svg width="41" height="40" viewBox="0 0 41 40" fill="none" xmlns="http://www.w3.org/2000/svg">
<rect x="0.5" y="40.0002" width="40" height="40" rx="20" transform="rotate(-90 0.5 40.0002)" fill="#F9D9DA"/>
<path fill-rule="evenodd" clip-rule="evenodd" d="M24.521 20.0001C24.521 20.1186 24.4739 20.2322 24.3901 20.316C24.3063 20.3998 24.1927 20.4469 24.0742 20.4469L16.0316 20.4469C15.9131 20.4469 15.7994 20.3998 15.7157 20.316C15.6319 20.2322 15.5848 20.1186 15.5848 20.0001C15.5848 19.8816 15.6319 19.7679 15.7157 19.6841C15.7994 19.6003 15.9131 19.5533 16.0316 19.5533L24.0742 19.5533C24.1927 19.5533 24.3063 19.6003 24.3901 19.6841C24.4739 19.7679 24.521 19.8816 24.521 20.0001Z" fill="#07484A"/>
<path fill-rule="evenodd" clip-rule="evenodd" d="M25.284 19.6838C25.3256 19.7253 25.3586 19.7746 25.3812 19.8289C25.4037 19.8832 25.4153 19.9414 25.4153 20.0002C25.4153 20.0589 25.4037 20.1171 25.3812 20.1714C25.3586 20.2257 25.3256 20.275 25.284 20.3165L22.6032 22.9974C22.5193 23.0813 22.4055 23.1284 22.2868 23.1284C22.1682 23.1284 22.0544 23.0813 21.9705 22.9974C21.8866 22.9135 21.8394 22.7997 21.8394 22.681C21.8394 22.5624 21.8866 22.4486 21.9705 22.3647L24.3359 20.0002L21.9705 17.6356C21.8866 17.5517 21.8394 17.4379 21.8394 17.3193C21.8394 17.2006 21.8866 17.0869 21.9705 17.003C22.0544 16.9191 22.1682 16.8719 22.2868 16.8719C22.4055 16.8719 22.5193 16.9191 22.6032 17.003L25.284 19.6838Z" fill="#07484A"/>
</svg>
